<svg version="1.0" xmlns="http://www.w3.org/2000/svg" width="1386.667" height="1386.667" viewBox="0 0 1040 1040"><path d="M0 520v480h1040V40H0v480zm353.6-363.8c2.8 3.2 3.4 4.5 3.4 8.4 0 3.9-.5 5.1-3.3 7.9-3.3 3.3-3.3 3.3-15.7 3.9-6.9.3-36.8.8-66.6 1.1-57.4.6-64.6 1.1-81.4 5.8-20.8 5.9-34.6 13.9-46.7 27.1-22.9 25-21.6 65.2 3.8 115.8 2.3 4.5 19.9 33.5 39.1 64.2 20.2 32.3 35.2 57.2 35.5 59.1.7 4.3-2.2 10.2-5.8 12-3.6 1.9-8.2 1.9-11.8 0-4.1-2-71.9-110.7-81.2-130-7.2-14.9-13.7-32.8-17-47.2-3-12.8-3.7-37.2-1.5-48.4 8.6-42.7 46.4-72.6 102.1-80.9 7.9-1.2 86.6-2.8 124.8-2.6l18.9.1 3.4 3.7zm474.1-1.7c17.4 2.3 26.3 4.2 41 9 24.6 8.1 42 18.2 55 31.8 10.7 11.4 16.1 20.5 21.1 35.7 7 21.5 5.8 47.4-3.3 74.1-4.4 12.7-12.6 29.7-15.9 32.8-5.4 5.1-14.9 3.3-18.1-3.5-2.2-4.8-1.9-7 2.5-14.8 4.8-8.8 10.1-22.2 13.1-33.6 3.1-11.5 3.4-36.2.6-45.5-3.9-12.6-8.6-20.5-17.7-29.6-16-16.1-38.4-26.1-71.5-32-17.1-3-34.7-3.2-211.5-2.1-121.3.8-153.1.7-155.5-.3-4.3-1.8-6.6-4.8-7.1-9.2-.6-4.4 1-7.8 4.9-10.7 2.8-2.1 3.5-2.1 90.5-2.6 203.7-1.2 259.3-1.1 271.9.5zm-360.6 92.3l67.6.7-11.8 32.5c-6.6 17.9-14.1 38.6-16.8 46-2.7 7.4-12 32.8-20.6 56.5-8.6 23.6-18.8 51.5-22.6 61.9-3.8 10.4-7.4 21.5-8 24.8-1.4 7.2-.6 20.5 1.6 27 2.7 7.8 13.5 16.5 26 20.9 6 2.1 16 3.2 80.5 9.4 20.6 2 62.2 6 92.5 9 30.2 3 56.3 5.5 58 5.5 6.4 0 6.4.4-4.8 23.1-38.6 78.8-106.5 215.4-109.5 220.4-12.3 20.6-25.3 31.4-40 33.5-21 2.9-38.8-12.6-46.2-40.5-1.5-5.6-2.5-14.7-3.5-29.8-1.6-24.6-2.8-35-5.5-48.9-5.1-26.5-16.3-45.9-30.5-52.8-4.4-2.2-6.3-2.5-16-2.5-16.9.1-21.7 2.1-60.5 26.3-24.9 15.5-26.9 16.5-36 17-6 .3-8.7 0-13.1-1.7-6.4-2.4-13.9-8.5-17.5-14.3-3.5-5.6-5.7-14.9-4.9-21.1.8-6.6 5.4-16.3 9.7-20.4 1.8-1.7 14.1-9.9 27.3-18.2 13.2-8.2 23.9-15.5 23.7-16.1-.1-.6-9.5-16.6-20.9-35.5l-20.6-34.3-3.6 2.2c-2 1.2-28.2 17.6-58.2 36.4-39.8 24.8-56.2 34.5-60.4 35.8-15.2 4.4-31.4-3-39.2-17.8-2.5-4.7-2.8-6.4-2.8-14.8 0-8.9.2-9.9 3.4-15.8 1.9-3.4 4.8-7.5 6.5-9 1.7-1.5 30.6-19.8 64.1-40.7 68.4-42.6 69.4-43.3 76.8-58.3 4-8.2 4.2-9 4.2-17.6 0-7.8-.4-9.9-2.8-15-8.7-18.8-26.3-35.1-59-54.8-27.3-16.4-37.8-23.9-47.8-33.8-10.7-10.5-14.9-17.4-16.9-27.7-1.4-7.1-.2-16.8 3.1-24.3 5.6-12.7 22-21.5 44-23.8 7.7-.8 94.8-.5 211 .6zm313 .2c18 1.7 33.7 6.8 42.4 13.7 11.5 9 15.9 24.9 12 43.2-2.6 12.4-7.4 23-42.8 93.7-36.7 73.5-35.8 71.9-45.8 76.9-7.1 3.6-11.7 4.4-21.6 3.4-4.8-.4-26.1-2.4-47.3-4.4-65.2-6-109.1-10.5-119-12.1-11.4-1.9-18.5-5.3-21.2-10.4-2.6-4.6-1.9-16.1 1.6-28 6.4-21.7 28.4-77.3 56.1-141.9 8.8-20.5 12.8-26.1 21.9-30.9l5.1-2.7 51.5-.5c28.3-.3 61.6-.6 74-.8 12.4-.1 27.3.3 33.1.8zm87.1 149.2c5 1.5 12.2 7.8 15.1 13.2 3 5.8 3.1 17.4 0 23.2-9 17-30.3 19.9-43.2 5.9-4-4.3-7.1-12-7.1-17.5 0-5.2 3.1-13.1 6.8-17.2 7-7.7 18.1-10.7 28.4-7.6zm-40.6 110.9c2.9 2.7 4.6 8.2 3.5 11.2-2.9 7.4-164.4 329.5-169.5 338.1-19.3 31.8-42.2 54.8-66.1 66.5-14.5 7.1-21 8.6-39 8.6-12.4 0-16.4-.4-23.1-2.2-25-6.8-50.9-25.2-70.9-50.3-8.2-10.3-75.6-118.5-76.2-122.5-.7-4.5 2.1-10 6.2-11.9 4.1-2 5.9-2 10 0 2.6 1.2 5.7 5.3 14.6 19.7 39.3 63.1 58.7 93.9 62.8 99.2 10.7 14 28.4 29.2 42.6 36.7 20.1 10.4 42.7 11.5 61.1 2.9 19.3-9 39.9-29.6 56.9-56.6 3.1-5 42.5-82.9 87.5-173.1 64.9-130 82.6-164.7 85.1-166.9 2.8-2.3 4-2.6 7.7-2.2 2.6.3 5.3 1.4 6.8 2.8zM264.1 684.4c14.5 3.4 24.7 14.9 26.5 29.7 1.2 10.7-4.8 24.2-13.9 30.6-8.2 5.8-23.1 14.6-27.9 16.5-6.7 2.5-16.2 2.4-23.5-.4-8-2.9-16.2-11.2-19.2-19.3-3-7.9-2.6-19.7.9-26.5 3.9-7.7 6.2-10 16-16.5 22.1-14.6 29.1-17 41.1-14.1z"/></svg>